<svg xmlns="http://www.w3.org/2000/svg" width="24" height="24" viewBox="0 0 24 24" fill="none" stroke="currentColor" stroke-width="1.7" stroke-linecap="round" stroke-linejoin="round" >
  <path d="M6.5 5.5h8.75A3.25 3.25 0 0 1 18.5 8.75v4.5a3.25 3.25 0 0 1-3.25 3.25H11l-3.9 2.55.75-2.55H6.5a3 3 0 0 1-3-3v-5a3 3 0 0 1 3-3Z"/>
  <path d="M10.9 8.4v5.1"/>
  <path d="M8.9 10.1v1.7"/>
  <path d="M12.9 9.3v3.3"/>
  <path d="M19.5 4.1c.18 1.45 1.05 2.33 2.5 2.5-1.45.17-2.32 1.05-2.5 2.5-.18-1.45-1.05-2.33-2.5-2.5 1.45-.17 2.32-1.05 2.5-2.5Z"/>
</svg>
